# 3ds Max Wavefront OBJ Exporter v0.97b - (c)2007 guruware
# 创建的文件:14.05.2021 13:52:47

mtllib ARS_R.mtl

#
# object 右ars
#

v  -76.2141 -4.8538 -20.0315
v  -77.4578 -4.8538 -20.0315
v  -78.9698 -4.8538 -20.0315
v  -78.9713 -4.8538 -19.2346
v  -77.3083 -4.8538 -19.2346
v  -76.2141 -4.8538 -19.2346
v  -76.2141 -0.9943 -20.0315
v  -76.2141 -0.9943 -19.2346
v  -77.3083 -0.9943 -19.2346
v  -78.9713 -0.9943 -19.2346
v  -78.9698 -0.9943 -20.0315
v  -77.4578 -0.9943 -20.0315
v  -75.9736 -4.6426 -20.0315
v  -75.9736 -4.6426 -19.2346
v  -75.9736 -2.9241 -19.2346
v  -75.9736 -2.9241 -20.0315
v  -76.2141 -2.9241 -19.2346
v  -81.9689 -4.6426 -19.2346
v  -81.9689 -4.6426 -20.0315
v  -81.9689 -2.9241 -20.0315
v  -81.9689 -2.9241 -19.2346
v  -81.7284 -4.8538 -20.0315
v  -81.7281 -2.9241 -20.0315
v  -81.7284 -4.8538 -19.2346
v  -75.9736 -1.2056 -20.0315
v  -75.9736 -1.2056 -19.2346
v  -81.7284 -0.9943 -19.2346
v  -81.9689 -1.2056 -19.2346
v  -81.9689 -1.2056 -20.0315
v  -81.7284 -0.9943 -20.0315
v  -77.3965 -4.8538 -20.8034
v  -76.8053 -4.8538 -20.8034
v  -76.8053 -3.8890 -20.8034
v  -77.3965 -3.8890 -20.8034
v  -76.2141 -4.8538 -20.8034
v  -77.4578 -4.8538 -20.7543
v  -75.9736 -4.6426 -20.8034
v  -75.9736 -2.9241 -20.8034
v  -76.2141 -0.9943 -20.8034
v  -75.9736 -1.2056 -20.8034
v  -77.4578 -0.9943 -20.7543
v  -77.3965 -0.9943 -20.8034
v  -76.8053 -0.9943 -20.8034
v  -77.4578 -2.9241 -20.0315
v  -77.4578 -2.9241 -20.7543
v  -77.3965 -2.9241 -20.8034
v  -77.3965 -1.9592 -20.8034
v  -81.7281 -2.9241 -19.2346
v  -78.9696 -2.9241 -20.0315
v  -76.2141 -1.9592 -20.8034
v  -76.2141 -2.9241 -20.8034
v  -80.3498 -0.9943 -19.2346
v  -80.3496 -2.9241 -19.2346
v  -77.3081 -2.9241 -19.2346
v  -78.9711 -2.9241 -19.2346
v  -80.3498 -4.8538 -19.2346
v  -80.3491 -4.8538 -20.0315
v  -80.3488 -2.9241 -20.0315
v  -80.3491 -0.9943 -20.0315
v  -76.2141 -3.8890 -20.8034
v  -76.8053 -1.9592 -20.8034
v  -76.8053 -2.9241 -20.8034
# 62 vertices

vn 0.3826 -0.9239 -0.0000
vn -0.3015 -0.9045 -0.3015
vn -0.0000 -0.7071 -0.7071
vn 0.0000 -0.7071 0.7071
vn 0.2971 -0.7173 0.6303
vn 0.3827 0.9239 0.0000
vn 0.2971 0.7173 0.6303
vn 0.0000 0.7071 0.7071
vn -0.0000 0.7071 -0.7071
vn -0.3015 0.9045 -0.3015
vn 0.9239 -0.3826 -0.0000
vn 0.7173 -0.2971 0.6303
vn 0.7071 0.0000 0.7071
vn 1.0000 0.0000 -0.0000
vn 0.0000 0.0000 1.0000
vn -0.7173 -0.2971 0.6303
vn -0.7173 -0.2971 -0.6303
vn -0.7071 0.0000 -0.7071
vn -0.7071 0.0000 0.7071
vn -0.2971 -0.7173 -0.6303
vn 0.0000 0.0000 -1.0000
vn -0.2971 -0.7173 0.6303
vn 0.9239 0.3827 -0.0000
vn 0.7173 0.2971 0.6303
vn -0.2971 0.7173 0.6303
vn -0.7173 0.2971 0.6303
vn -0.7173 0.2971 -0.6303
vn -0.2971 0.7173 -0.6303
vn -0.2971 -0.6303 -0.7173
vn 0.0000 -0.7071 -0.7071
vn 0.0000 -0.0000 -1.0000
vn -0.3827 0.0000 -0.9239
vn 0.2971 -0.7173 -0.6303
vn -0.7173 -0.6303 -0.2971
vn 0.7173 -0.2971 -0.6303
vn 0.7071 0.0000 -0.7071
vn 0.2971 0.7173 -0.6303
vn 0.7173 0.2971 -0.6303
vn -0.7173 0.6303 -0.2971
vn -0.2971 0.6303 -0.7173
vn 0.0000 0.7071 -0.7071
vn -0.9239 0.0000 -0.3827
vn -0.0000 -0.0000 -1.0000
vn -0.0000 0.0000 -1.0000
# 44 vertex normals

vt 1.0000 0.0496 0.0000
vt 1.0000 0.5000 0.0000
vt 1.0000 0.7252 0.0000
vt 0.0000 0.5000 0.0000
vt 0.0000 0.2748 0.0000
vt 0.0000 0.0496 0.0000
vt 1.0000 0.2748 0.0000
vt 0.0000 0.7252 0.0000
vt 0.0000 0.0547 0.0000
vt 1.0000 0.0547 0.0000
vt 0.0496 0.0000 0.0000
vt 0.0428 0.5000 0.0000
vt 0.0286 0.5000 0.0000
vt 1.0000 -0.5427 0.0000
vt -0.0000 -0.5427 0.0000
vt 0.0000 -0.5427 0.0000
vt -0.0000 1.5427 0.0000
vt 0.0000 0.9453 0.0000
vt 1.0000 0.9453 0.0000
vt 1.0000 1.5427 0.0000
vt 0.5222 0.0000 0.0000
vt 0.7363 0.0000 0.0000
vt 0.7281 0.2500 0.0000
vt 0.5222 0.2500 0.0000
vt 0.5000 0.0000 0.0000
vt 0.9504 0.0000 0.0000
vt 0.9504 1.0000 0.0000
vt 0.5000 1.0000 0.0000
vt 0.5222 1.0000 0.0000
vt 0.7363 1.0000 0.0000
vt 0.5000 0.5000 0.0000
vt 0.5222 0.5000 0.0000
vt 0.5222 0.7500 0.0000
vt 0.9562 0.5000 0.0000
vt 0.2748 1.0000 0.0000
vt 0.2643 0.5000 0.0000
vt 0.9340 0.7500 0.0000
vt 0.9176 0.5000 0.0000
vt 0.7252 1.0000 0.0000
vt 0.7278 0.5000 0.0000
vt 0.2748 0.0000 0.0000
vt 0.2711 0.5000 0.0000
vt 0.0496 1.0000 0.0000
vt 0.4995 0.5000 0.0000
vt 0.7252 0.0000 0.0000
vt 0.1622 0.0000 0.0000
vt 0.1464 0.5000 0.0000
vt 0.1622 1.0000 0.0000
vt 0.0000 0.8378 0.0000
vt 1.0000 0.8378 0.0000
vt 1.0000 0.9504 0.0000
vt 0.0000 0.9504 0.0000
vt 0.9340 0.2500 0.0000
vt 0.7281 0.7500 0.0000
vt 0.7199 0.5000 0.0000
# 55 texture coords

o 右ars
g 右ars
usemtl wire_008008136
s 1
f 6/6/5 5/5/4 4/4/4 3/3/3 2/2/2 1/1/1 
f 12/4/10 11/8/9 10/2/8 9/7/8 8/1/7 7/6/6 
f 16/4/14 15/2/13 14/10/12 13/9/11 
s 2
f 15/4/13 17/12/15 6/11/5 14/9/12 
s 1
f 21/4/19 20/2/18 19/10/17 18/9/16 
s 2
f 20/4/18 23/13/21 22/11/20 19/9/17 
s 4
f 24/15/22 18/9/16 19/10/17 22/14/20 
f 1/16/1 13/9/11 14/10/12 6/14/5 
f 8/20/7 26/19/24 25/18/23 7/17/6 
f 30/20/28 29/19/27 28/18/26 27/17/25 
s 2
f 34/24/32 33/23/31 32/22/30 31/21/29 
s 1
f 36/25/34 31/21/29 32/22/30 35/26/33 1/26/1 2/25/2 
s 4
f 35/26/33 37/10/35 13/10/11 1/26/1 
s 1
f 37/10/35 38/2/36 16/2/14 13/10/11 
s 4
f 40/19/38 39/27/37 7/27/6 25/19/23 
s 1
f 39/27/37 43/30/41 42/29/40 41/28/39 12/28/10 7/27/6 
s 4
f 41/28/39 45/31/42 44/31/18 12/28/10 
s 8
f 47/33/32 46/32/32 45/31/42 41/28/39 42/29/40 
s 2
f 48/34/15 27/27/25 28/19/26 21/2/19 
f 49/36/43 11/35/9 12/28/10 44/31/18 
s 1
f 21/4/19 28/18/26 29/19/27 20/2/18 
f 38/2/36 40/19/38 25/19/23 16/2/14 
f 16/4/14 25/18/23 26/19/24 15/2/13 
s 8
f 46/32/32 34/24/32 31/21/29 36/25/34 45/31/42 
s 4
f 45/31/42 36/25/34 2/25/2 44/31/18 
s 2
f 51/38/31 50/37/21 39/27/37 40/19/38 38/2/36 
f 48/34/15 21/2/19 18/10/16 24/26/22 
f 48/34/15 53/40/15 52/39/8 27/27/25 
f 17/12/15 54/42/15 5/41/4 6/11/5 
f 17/12/15 15/4/13 26/18/24 8/43/7 
f 55/44/15 54/42/15 9/35/8 10/28/8 
f 55/44/15 53/40/15 56/45/4 4/25/4 
f 23/13/21 58/47/44 57/46/3 22/11/20 
f 23/13/21 20/4/18 29/18/27 30/43/28 
f 49/36/43 58/47/44 59/48/9 11/35/9 
f 49/36/43 44/31/18 2/25/2 3/41/3 
s 1
f 11/8/9 59/49/9 52/3/8 10/2/8 
f 4/4/4 56/8/4 57/50/3 3/3/3 
s 2
f 53/40/15 55/44/15 10/28/8 52/39/8 
f 53/40/15 48/34/15 24/26/22 56/45/4 
f 58/47/44 49/36/43 3/41/3 57/46/3 
f 58/47/44 23/13/21 30/43/28 59/48/9 
s 1
f 59/49/9 30/52/28 27/51/25 52/3/8 
f 56/8/4 24/52/22 22/51/20 57/50/3 
s 2
f 60/53/31 51/38/31 38/2/36 37/10/35 35/26/33 
f 50/37/21 61/54/21 43/30/41 39/27/37 
f 33/23/31 60/53/31 35/26/33 32/22/30 
f 61/54/21 47/33/32 42/29/40 43/30/41 
f 54/42/15 55/44/15 4/25/4 5/41/4 
f 54/42/15 17/12/15 8/43/7 9/35/8 
f 50/37/21 51/38/31 62/55/21 61/54/21 
f 61/54/21 62/55/21 46/32/32 47/33/32 
f 34/24/32 46/32/32 62/55/21 33/23/31 
f 33/23/31 62/55/21 51/38/31 60/53/31 
# 54 polygons

