# 3ds Max Wavefront OBJ Exporter v0.97b - (c)2007 guruware
# 创建的文件:14.05.2021 13:52:21

mtllib ARS_L.mtl

#
# object 左ARS
#

v  -76.1881 -4.8602 18.0631
v  -77.4318 -4.8602 18.0631
v  -78.9437 -4.8602 18.0631
v  -78.9452 -4.8602 17.2663
v  -77.2822 -4.8602 17.2663
v  -76.1881 -4.8602 17.2663
v  -76.1881 -1.0007 18.0631
v  -76.1881 -1.0007 17.2663
v  -77.2822 -1.0007 17.2663
v  -78.9452 -1.0007 17.2663
v  -78.9437 -1.0007 18.0631
v  -77.4318 -1.0007 18.0631
v  -75.9475 -4.6489 18.0631
v  -75.9475 -4.6489 17.2662
v  -75.9475 -2.9305 17.2662
v  -75.9475 -2.9305 18.0631
v  -76.1880 -2.9305 17.2663
v  -81.9429 -4.6489 17.2663
v  -81.9429 -4.6489 18.0631
v  -81.9429 -2.9305 18.0631
v  -81.9429 -2.9305 17.2663
v  -81.7023 -4.8602 18.0631
v  -81.7020 -2.9305 18.0631
v  -81.7023 -4.8602 17.2663
v  -75.9475 -1.2120 18.0631
v  -75.9475 -1.2120 17.2662
v  -81.7023 -1.0007 17.2663
v  -81.9429 -1.2120 17.2663
v  -81.9429 -1.2120 18.0631
v  -81.7023 -1.0007 18.0631
v  -77.3705 -4.8602 18.8350
v  -76.7793 -4.8602 18.8350
v  -76.7793 -3.8953 18.8350
v  -77.3705 -3.8953 18.8350
v  -76.1881 -4.8602 18.8350
v  -77.4318 -4.8602 18.7859
v  -75.9475 -4.6489 18.8350
v  -75.9475 -2.9305 18.8350
v  -76.1881 -1.0007 18.8350
v  -75.9475 -1.2120 18.8350
v  -77.4318 -1.0007 18.7859
v  -77.3705 -1.0007 18.8350
v  -76.7793 -1.0007 18.8350
v  -77.4318 -2.9305 18.0631
v  -77.4318 -2.9305 18.7859
v  -77.3705 -2.9305 18.8350
v  -77.3705 -1.9656 18.8350
v  -81.7020 -2.9305 17.2663
v  -78.9436 -2.9305 18.0631
v  -76.1880 -1.9656 18.8350
v  -76.1880 -2.9305 18.8350
v  -80.3238 -1.0007 17.2663
v  -80.3235 -2.9305 17.2663
v  -77.2821 -2.9305 17.2663
v  -78.9450 -2.9305 17.2663
v  -80.3238 -4.8602 17.2663
v  -80.3230 -4.8602 18.0631
v  -80.3228 -2.9305 18.0631
v  -80.3230 -1.0007 18.0631
v  -76.1880 -3.8953 18.8350
v  -76.7793 -1.9656 18.8350
v  -76.7792 -2.9305 18.8350
# 62 vertices

vn 0.3826 -0.9239 -0.0000
vn -0.3015 -0.9045 0.3015
vn 0.0000 -0.7071 0.7071
vn -0.0000 -0.7071 -0.7071
vn 0.2971 -0.7173 -0.6303
vn 0.3827 0.9239 -0.0000
vn 0.2971 0.7173 -0.6303
vn 0.0000 0.7071 -0.7071
vn -0.0000 0.7071 -0.7071
vn 0.0000 0.7071 0.7071
vn -0.3015 0.9045 0.3015
vn 0.9239 -0.3826 -0.0000
vn 0.7173 -0.2971 -0.6303
vn 0.7071 0.0000 -0.7071
vn 1.0000 0.0000 -0.0000
vn -0.0000 0.0000 -1.0000
vn -0.7173 -0.2971 -0.6303
vn -0.7173 -0.2971 0.6303
vn -0.7071 0.0000 0.7071
vn -0.7071 0.0000 -0.7071
vn -0.2971 -0.7173 0.6303
vn 0.0000 0.0000 1.0000
vn -0.2971 -0.7173 -0.6303
vn 0.9239 0.3827 -0.0000
vn 0.7173 0.2971 -0.6303
vn -0.2971 0.7173 -0.6303
vn -0.7173 0.2971 -0.6303
vn -0.7173 0.2971 0.6303
vn -0.2971 0.7173 0.6303
vn -0.2971 -0.6303 0.7173
vn 0.0000 -0.0000 1.0000
vn -0.3827 0.0000 0.9239
vn 0.2971 -0.7173 0.6303
vn -0.7173 -0.6303 0.2971
vn 0.7173 -0.2971 0.6303
vn 0.7071 0.0000 0.7071
vn 0.2971 0.7173 0.6303
vn 0.7173 0.2971 0.6303
vn -0.7173 0.6303 0.2971
vn -0.2971 0.6303 0.7173
vn -0.9239 0.0000 0.3827
vn 0.0000 0.0000 -1.0000
# 42 vertex normals

vt 1.0000 0.0496 0.0000
vt 1.0000 0.5000 0.0000
vt 1.0000 0.7252 0.0000
vt 0.0000 0.5000 0.0000
vt 0.0000 0.2748 0.0000
vt 0.0000 0.0496 0.0000
vt 1.0000 0.2748 0.0000
vt 0.0000 0.7252 0.0000
vt 0.0000 0.0547 0.0000
vt 1.0000 0.0547 0.0000
vt 0.0496 0.0000 0.0000
vt 0.0428 0.5000 0.0000
vt 0.0286 0.5000 0.0000
vt 1.0000 -0.5427 0.0000
vt -0.0000 -0.5427 0.0000
vt 0.0000 -0.5427 0.0000
vt -0.0000 1.5427 0.0000
vt 0.0000 0.9453 0.0000
vt 1.0000 0.9453 0.0000
vt 1.0000 1.5427 0.0000
vt 0.5222 0.0000 0.0000
vt 0.7363 0.0000 0.0000
vt 0.7281 0.2500 0.0000
vt 0.5222 0.2500 0.0000
vt 0.5000 0.0000 0.0000
vt 0.9504 0.0000 0.0000
vt 0.9504 1.0000 0.0000
vt 0.5000 1.0000 0.0000
vt 0.5222 1.0000 0.0000
vt 0.7363 1.0000 0.0000
vt 0.5000 0.5000 0.0000
vt 0.5222 0.5000 0.0000
vt 0.5222 0.7500 0.0000
vt 0.9562 0.5000 0.0000
vt 0.2748 1.0000 0.0000
vt 0.2643 0.5000 0.0000
vt 0.9340 0.7500 0.0000
vt 0.9176 0.5000 0.0000
vt 0.7252 1.0000 0.0000
vt 0.7278 0.5000 0.0000
vt 0.2748 0.0000 0.0000
vt 0.2711 0.5000 0.0000
vt 0.0496 1.0000 0.0000
vt 0.4995 0.5000 0.0000
vt 0.7252 0.0000 0.0000
vt 0.1622 0.0000 0.0000
vt 0.1464 0.5000 0.0000
vt 0.1622 1.0000 0.0000
vt 0.0000 0.8378 0.0000
vt 1.0000 0.8378 0.0000
vt 1.0000 0.9504 0.0000
vt 0.0000 0.9504 0.0000
vt 0.9340 0.2500 0.0000
vt 0.7281 0.7500 0.0000
vt 0.7199 0.5000 0.0000
# 55 texture coords

o 左ARS
g 左ARS
usemtl wire_008008136
s 1
f 1/1/1 2/2/2 3/3/3 4/4/4 5/5/4 6/6/5 
f 7/6/6 8/1/7 9/7/8 10/2/9 11/8/10 12/4/11 
f 13/9/12 14/10/13 15/2/14 16/4/15 
s 2
f 14/9/13 6/11/5 17/12/16 15/4/14 
s 1
f 18/9/17 19/10/18 20/2/19 21/4/20 
s 2
f 19/9/18 22/11/21 23/13/22 20/4/19 
s 4
f 22/14/21 19/10/18 18/9/17 24/15/23 
f 6/14/5 14/10/13 13/9/12 1/16/1 
f 7/17/6 25/18/24 26/19/25 8/20/7 
f 27/17/26 28/18/27 29/19/28 30/20/29 
s 2
f 31/21/30 32/22/3 33/23/31 34/24/32 
s 1
f 2/25/2 1/26/1 35/26/33 32/22/3 31/21/30 36/25/34 
s 4
f 1/26/1 13/10/12 37/10/35 35/26/33 
s 1
f 13/10/12 16/2/15 38/2/36 37/10/35 
s 4
f 25/19/24 7/27/6 39/27/37 40/19/38 
s 1
f 7/27/6 12/28/11 41/28/39 42/29/40 43/30/10 39/27/37 
s 4
f 12/28/11 44/31/19 45/31/41 41/28/39 
s 8
f 42/29/40 41/28/39 45/31/41 46/32/32 47/33/32 
s 2
f 21/2/20 28/19/27 27/27/26 48/34/42 
f 44/31/19 12/28/11 11/35/10 49/36/31 
s 1
f 20/2/19 29/19/28 28/18/27 21/4/20 
f 16/2/15 25/19/24 40/19/38 38/2/36 
f 15/2/14 26/19/25 25/18/24 16/4/15 
s 8
f 45/31/41 36/25/34 31/21/30 34/24/32 46/32/32 
s 4
f 44/31/19 2/25/2 36/25/34 45/31/41 
s 2
f 38/2/36 40/19/38 39/27/37 50/37/22 51/38/31 
f 24/26/23 18/10/17 21/2/20 48/34/42 
f 27/27/26 52/39/9 53/40/16 48/34/42 
f 6/11/5 5/41/4 54/42/16 17/12/16 
f 8/43/7 26/18/25 15/4/14 17/12/16 
f 10/28/9 9/35/8 54/42/16 55/44/16 
f 4/25/4 56/45/4 53/40/16 55/44/16 
f 22/11/21 57/46/3 58/47/22 23/13/22 
f 30/43/29 29/18/28 20/4/19 23/13/22 
f 11/35/10 59/48/10 58/47/22 49/36/31 
f 3/41/3 2/25/2 44/31/19 49/36/31 
s 1
f 10/2/9 52/3/9 59/49/10 11/8/10 
f 3/3/3 57/50/3 56/8/4 4/4/4 
s 2
f 52/39/9 10/28/9 55/44/16 53/40/16 
f 56/45/4 24/26/23 48/34/42 53/40/16 
f 57/46/3 3/41/3 49/36/31 58/47/22 
f 59/48/10 30/43/29 23/13/22 58/47/22 
s 1
f 52/3/9 27/51/26 30/52/29 59/49/10 
f 57/50/3 22/51/21 24/52/23 56/8/4 
s 2
f 35/26/33 37/10/35 38/2/36 51/38/31 60/53/31 
f 39/27/37 43/30/10 61/54/22 50/37/22 
f 32/22/3 35/26/33 60/53/31 33/23/31 
f 43/30/10 42/29/40 47/33/32 61/54/22 
f 5/41/4 4/25/4 55/44/16 54/42/16 
f 9/35/8 8/43/7 17/12/16 54/42/16 
f 61/54/22 62/55/22 51/38/31 50/37/22 
f 47/33/32 46/32/32 62/55/22 61/54/22 
f 33/23/31 62/55/22 46/32/32 34/24/32 
f 60/53/31 51/38/31 62/55/22 33/23/31 
# 54 polygons

