# 3ds Max Wavefront OBJ Exporter v0.97b - (c)2007 guruware
# 创建的文件:12.04.2021 11:44:27

mtllib CCR_L.mtl

#
# object Box057
#

v  -83.0703 -4.8886 9.3692
v  -83.0703 -4.8886 8.9259
v  -75.8757 -4.8886 8.9259
v  -75.8757 -4.8886 9.3692
v  -83.0703 -0.4452 9.3692
v  -75.8757 -0.4452 9.3692
v  -75.8757 -0.4452 8.9259
v  -83.0703 -0.4452 8.9259
# 8 vertices

vn -0.5774 -0.5774 0.5774
vn -0.5774 -0.5774 -0.5774
vn 0.5774 -0.5774 -0.5774
vn 0.5774 -0.5774 0.5774
vn -0.5774 0.5774 0.5774
vn 0.5774 0.5774 0.5774
vn 0.5774 0.5774 -0.5774
vn -0.5774 0.5774 -0.5774
# 8 vertex normals

vt 1.0000 0.0000 0.0000
vt 1.0000 1.0000 0.0000
vt 0.0000 1.0000 0.0000
vt 0.0000 0.0000 0.0000
# 4 texture coords

o Box057
g Box057
usemtl wire_225087143
s 2
f 1/1/1 2/2/2 3/3/3 4/4/4 
s 4
f 5/4/5 6/1/6 7/2/7 8/3/8 
s 8
f 1/4/1 4/1/4 6/2/6 5/3/5 
s 16
f 4/4/4 3/1/3 7/2/7 6/3/6 
s 32
f 3/4/3 2/1/2 8/2/8 7/3/7 
s 64
f 2/4/2 1/1/1 5/2/5 8/3/8 
# 6 polygons

#
# object Box058
#

v  -83.0703 -4.8886 10.0248
v  -83.0703 -4.8886 9.5815
v  -75.8757 -4.8886 9.5815
v  -75.8757 -4.8886 10.0248
v  -83.0703 -0.4452 10.0248
v  -75.8757 -0.4452 10.0248
v  -75.8757 -0.4452 9.5815
v  -83.0703 -0.4452 9.5815
# 8 vertices

vn -0.5774 -0.5774 0.5774
vn -0.5774 -0.5774 -0.5774
vn 0.5774 -0.5774 -0.5774
vn 0.5774 -0.5774 0.5774
vn -0.5774 0.5774 0.5774
vn 0.5774 0.5774 0.5774
vn 0.5774 0.5774 -0.5774
vn -0.5774 0.5774 -0.5774
# 8 vertex normals

vt 1.0000 0.0000 0.0000
vt 1.0000 1.0000 0.0000
vt 0.0000 1.0000 0.0000
vt 0.0000 0.0000 0.0000
# 4 texture coords

o Box058
g Box058
usemtl wire_225087143
s 2
f 9/5/9 10/6/10 11/7/11 12/8/12 
s 4
f 13/8/13 14/5/14 15/6/15 16/7/16 
s 8
f 9/8/9 12/5/12 14/6/14 13/7/13 
s 16
f 12/8/12 11/5/11 15/6/15 14/7/14 
s 32
f 11/8/11 10/5/10 16/6/16 15/7/15 
s 64
f 10/8/10 9/5/9 13/6/13 16/7/16 
# 6 polygons

#
# object Box059
#

v  -83.0703 -4.8886 10.6804
v  -83.0703 -4.8886 10.2371
v  -75.8757 -4.8886 10.2371
v  -75.8757 -4.8886 10.6804
v  -83.0703 -0.4452 10.6804
v  -75.8757 -0.4452 10.6804
v  -75.8757 -0.4452 10.2371
v  -83.0703 -0.4452 10.2371
# 8 vertices

vn -0.5774 -0.5774 0.5774
vn -0.5774 -0.5774 -0.5774
vn 0.5774 -0.5774 -0.5774
vn 0.5774 -0.5774 0.5774
vn -0.5774 0.5774 0.5774
vn 0.5774 0.5774 0.5774
vn 0.5774 0.5774 -0.5774
vn -0.5774 0.5774 -0.5774
# 8 vertex normals

vt 1.0000 0.0000 0.0000
vt 1.0000 1.0000 0.0000
vt 0.0000 1.0000 0.0000
vt 0.0000 0.0000 0.0000
# 4 texture coords

o Box059
g Box059
usemtl wire_225087143
s 2
f 17/9/17 18/10/18 19/11/19 20/12/20 
s 4
f 21/12/21 22/9/22 23/10/23 24/11/24 
s 8
f 17/12/17 20/9/20 22/10/22 21/11/21 
s 16
f 20/12/20 19/9/19 23/10/23 22/11/22 
s 32
f 19/12/19 18/9/18 24/10/24 23/11/23 
s 64
f 18/12/18 17/9/17 21/10/21 24/11/24 
# 6 polygons

#
# object Box060
#

v  -83.0703 -4.8886 11.3360
v  -83.0703 -4.8886 10.8927
v  -75.8757 -4.8886 10.8927
v  -75.8757 -4.8886 11.3360
v  -83.0703 -0.4452 11.3360
v  -75.8757 -0.4452 11.3360
v  -75.8757 -0.4452 10.8927
v  -83.0703 -0.4452 10.8927
# 8 vertices

vn -0.5774 -0.5774 0.5774
vn -0.5774 -0.5774 -0.5774
vn 0.5774 -0.5774 -0.5774
vn 0.5774 -0.5774 0.5774
vn -0.5774 0.5774 0.5774
vn 0.5774 0.5774 0.5774
vn 0.5774 0.5774 -0.5774
vn -0.5774 0.5774 -0.5774
# 8 vertex normals

vt 1.0000 0.0000 0.0000
vt 1.0000 1.0000 0.0000
vt 0.0000 1.0000 0.0000
vt 0.0000 0.0000 0.0000
# 4 texture coords

o Box060
g Box060
usemtl wire_225087143
s 2
f 25/13/25 26/14/26 27/15/27 28/16/28 
s 4
f 29/16/29 30/13/30 31/14/31 32/15/32 
s 8
f 25/16/25 28/13/28 30/14/30 29/15/29 
s 16
f 28/16/28 27/13/27 31/14/31 30/15/30 
s 32
f 27/16/27 26/13/26 32/14/32 31/15/31 
s 64
f 26/16/26 25/13/25 29/14/29 32/15/32 
# 6 polygons

#
# object Box061
#

v  -83.0703 -4.8886 11.9916
v  -83.0703 -4.8886 11.5483
v  -75.8757 -4.8886 11.5483
v  -75.8757 -4.8886 11.9916
v  -83.0703 -0.4452 11.9916
v  -75.8757 -0.4452 11.9916
v  -75.8757 -0.4452 11.5483
v  -83.0703 -0.4452 11.5483
# 8 vertices

vn -0.5774 -0.5774 0.5774
vn -0.5774 -0.5774 -0.5774
vn 0.5774 -0.5774 -0.5774
vn 0.5774 -0.5774 0.5774
vn -0.5774 0.5774 0.5774
vn 0.5774 0.5774 0.5774
vn 0.5774 0.5774 -0.5774
vn -0.5774 0.5774 -0.5774
# 8 vertex normals

vt 1.0000 0.0000 0.0000
vt 1.0000 1.0000 0.0000
vt 0.0000 1.0000 0.0000
vt 0.0000 0.0000 0.0000
# 4 texture coords

o Box061
g Box061
usemtl wire_225087143
s 2
f 33/17/33 34/18/34 35/19/35 36/20/36 
s 4
f 37/20/37 38/17/38 39/18/39 40/19/40 
s 8
f 33/20/33 36/17/36 38/18/38 37/19/37 
s 16
f 36/20/36 35/17/35 39/18/39 38/19/38 
s 32
f 35/20/35 34/17/34 40/18/40 39/19/39 
s 64
f 34/20/34 33/17/33 37/18/37 40/19/40 
# 6 polygons

#
# object Box062
#

v  -83.0703 -4.8886 12.6472
v  -83.0703 -4.8886 12.2039
v  -75.8757 -4.8886 12.2039
v  -75.8757 -4.8886 12.6472
v  -83.0703 -0.4452 12.6472
v  -75.8757 -0.4452 12.6472
v  -75.8757 -0.4452 12.2039
v  -83.0703 -0.4452 12.2039
# 8 vertices

vn -0.5774 -0.5774 0.5774
vn -0.5774 -0.5774 -0.5774
vn 0.5774 -0.5774 -0.5774
vn 0.5774 -0.5774 0.5774
vn -0.5774 0.5774 0.5774
vn 0.5774 0.5774 0.5774
vn 0.5774 0.5774 -0.5774
vn -0.5774 0.5774 -0.5774
# 8 vertex normals

vt 1.0000 0.0000 0.0000
vt 1.0000 1.0000 0.0000
vt 0.0000 1.0000 0.0000
vt 0.0000 0.0000 0.0000
# 4 texture coords

o Box062
g Box062
usemtl wire_225087143
s 2
f 41/21/41 42/22/42 43/23/43 44/24/44 
s 4
f 45/24/45 46/21/46 47/22/47 48/23/48 
s 8
f 41/24/41 44/21/44 46/22/46 45/23/45 
s 16
f 44/24/44 43/21/43 47/22/47 46/23/46 
s 32
f 43/24/43 42/21/42 48/22/48 47/23/47 
s 64
f 42/24/42 41/21/41 45/22/45 48/23/48 
# 6 polygons

#
# object Box063
#

v  -83.0703 -4.8886 13.3028
v  -83.0703 -4.8886 12.8595
v  -75.8757 -4.8886 12.8595
v  -75.8757 -4.8886 13.3028
v  -83.0703 -0.4452 13.3028
v  -75.8757 -0.4452 13.3028
v  -75.8757 -0.4452 12.8595
v  -83.0703 -0.4452 12.8595
# 8 vertices

vn -0.5774 -0.5774 0.5774
vn -0.5774 -0.5774 -0.5774
vn 0.5774 -0.5774 -0.5774
vn 0.5774 -0.5774 0.5774
vn -0.5774 0.5774 0.5774
vn 0.5774 0.5774 0.5774
vn 0.5774 0.5774 -0.5774
vn -0.5774 0.5774 -0.5774
# 8 vertex normals

vt 1.0000 0.0000 0.0000
vt 1.0000 1.0000 0.0000
vt 0.0000 1.0000 0.0000
vt 0.0000 0.0000 0.0000
# 4 texture coords

o Box063
g Box063
usemtl wire_225087143
s 2
f 49/25/49 50/26/50 51/27/51 52/28/52 
s 4
f 53/28/53 54/25/54 55/26/55 56/27/56 
s 8
f 49/28/49 52/25/52 54/26/54 53/27/53 
s 16
f 52/28/52 51/25/51 55/26/55 54/27/54 
s 32
f 51/28/51 50/25/50 56/26/56 55/27/55 
s 64
f 50/28/50 49/25/49 53/26/53 56/27/56 
# 6 polygons

#
# object Box064
#

v  -83.0703 -4.8886 13.9583
v  -83.0703 -4.8886 13.5151
v  -75.8757 -4.8886 13.5151
v  -75.8757 -4.8886 13.9583
v  -83.0703 -0.4452 13.9583
v  -75.8757 -0.4452 13.9583
v  -75.8757 -0.4452 13.5151
v  -83.0703 -0.4452 13.5151
# 8 vertices

vn -0.5774 -0.5774 0.5774
vn -0.5774 -0.5774 -0.5774
vn 0.5774 -0.5774 -0.5774
vn 0.5774 -0.5774 0.5774
vn -0.5774 0.5774 0.5774
vn 0.5774 0.5774 0.5774
vn 0.5774 0.5774 -0.5774
vn -0.5774 0.5774 -0.5774
# 8 vertex normals

vt 1.0000 0.0000 0.0000
vt 1.0000 1.0000 0.0000
vt 0.0000 1.0000 0.0000
vt 0.0000 0.0000 0.0000
# 4 texture coords

o Box064
g Box064
usemtl wire_225087143
s 2
f 57/29/57 58/30/58 59/31/59 60/32/60 
s 4
f 61/32/61 62/29/62 63/30/63 64/31/64 
s 8
f 57/32/57 60/29/60 62/30/62 61/31/61 
s 16
f 60/32/60 59/29/59 63/30/63 62/31/62 
s 32
f 59/32/59 58/29/58 64/30/64 63/31/63 
s 64
f 58/32/58 57/29/57 61/30/61 64/31/64 
# 6 polygons

#
# object Box065
#

v  -83.0703 -4.8886 14.6139
v  -83.0703 -4.8886 14.1707
v  -75.8757 -4.8886 14.1707
v  -75.8757 -4.8886 14.6139
v  -83.0703 -0.4452 14.6139
v  -75.8757 -0.4452 14.6139
v  -75.8757 -0.4452 14.1707
v  -83.0703 -0.4452 14.1707
# 8 vertices

vn -0.5774 -0.5774 0.5774
vn -0.5774 -0.5774 -0.5774
vn 0.5774 -0.5774 -0.5774
vn 0.5774 -0.5774 0.5774
vn -0.5774 0.5774 0.5774
vn 0.5774 0.5774 0.5774
vn 0.5774 0.5774 -0.5774
vn -0.5774 0.5774 -0.5774
# 8 vertex normals

vt 1.0000 0.0000 0.0000
vt 1.0000 1.0000 0.0000
vt 0.0000 1.0000 0.0000
vt 0.0000 0.0000 0.0000
# 4 texture coords

o Box065
g Box065
usemtl wire_225087143
s 2
f 65/33/65 66/34/66 67/35/67 68/36/68 
s 4
f 69/36/69 70/33/70 71/34/71 72/35/72 
s 8
f 65/36/65 68/33/68 70/34/70 69/35/69 
s 16
f 68/36/68 67/33/67 71/34/71 70/35/70 
s 32
f 67/36/67 66/33/66 72/34/72 71/35/71 
s 64
f 66/36/66 65/33/65 69/34/69 72/35/72 
# 6 polygons

#
# object Box066
#

v  -83.0703 -4.8886 15.2695
v  -83.0703 -4.8886 14.8263
v  -75.8757 -4.8886 14.8263
v  -75.8757 -4.8886 15.2695
v  -83.0703 -0.4452 15.2695
v  -75.8757 -0.4452 15.2695
v  -75.8757 -0.4452 14.8263
v  -83.0703 -0.4452 14.8263
# 8 vertices

vn -0.5774 -0.5774 0.5774
vn -0.5774 -0.5774 -0.5774
vn 0.5774 -0.5774 -0.5774
vn 0.5774 -0.5774 0.5774
vn -0.5774 0.5774 0.5774
vn 0.5774 0.5774 0.5774
vn 0.5774 0.5774 -0.5774
vn -0.5774 0.5774 -0.5774
# 8 vertex normals

vt 1.0000 0.0000 0.0000
vt 1.0000 1.0000 0.0000
vt 0.0000 1.0000 0.0000
vt 0.0000 0.0000 0.0000
# 4 texture coords

o Box066
g Box066
usemtl wire_225087143
s 2
f 73/37/73 74/38/74 75/39/75 76/40/76 
s 4
f 77/40/77 78/37/78 79/38/79 80/39/80 
s 8
f 73/40/73 76/37/76 78/38/78 77/39/77 
s 16
f 76/40/76 75/37/75 79/38/79 78/39/78 
s 32
f 75/40/75 74/37/74 80/38/80 79/39/79 
s 64
f 74/40/74 73/37/73 77/38/77 80/39/80 
# 6 polygons

#
# object Box067
#

v  -83.0703 -4.8886 15.9251
v  -83.0703 -4.8886 15.4819
v  -75.8757 -4.8886 15.4819
v  -75.8757 -4.8886 15.9251
v  -83.0703 -0.4452 15.9251
v  -75.8757 -0.4452 15.9251
v  -75.8757 -0.4452 15.4819
v  -83.0703 -0.4452 15.4819
# 8 vertices

vn -0.5774 -0.5774 0.5774
vn -0.5774 -0.5774 -0.5774
vn 0.5774 -0.5774 -0.5774
vn 0.5774 -0.5774 0.5774
vn -0.5774 0.5774 0.5774
vn 0.5774 0.5774 0.5774
vn 0.5774 0.5774 -0.5774
vn -0.5774 0.5774 -0.5774
# 8 vertex normals

vt 1.0000 0.0000 0.0000
vt 1.0000 1.0000 0.0000
vt 0.0000 1.0000 0.0000
vt 0.0000 0.0000 0.0000
# 4 texture coords

o Box067
g Box067
usemtl wire_225087143
s 2
f 81/41/81 82/42/82 83/43/83 84/44/84 
s 4
f 85/44/85 86/41/86 87/42/87 88/43/88 
s 8
f 81/44/81 84/41/84 86/42/86 85/43/85 
s 16
f 84/44/84 83/41/83 87/42/87 86/43/86 
s 32
f 83/44/83 82/41/82 88/42/88 87/43/87 
s 64
f 82/44/82 81/41/81 85/42/85 88/43/88 
# 6 polygons

#
# object Box068
#

v  -83.0703 -4.8886 16.5807
v  -83.0703 -4.8886 16.1375
v  -75.8757 -4.8886 16.1375
v  -75.8757 -4.8886 16.5807
v  -83.0703 -0.4452 16.5807
v  -75.8757 -0.4452 16.5807
v  -75.8757 -0.4452 16.1375
v  -83.0703 -0.4452 16.1375
# 8 vertices

vn -0.5774 -0.5774 0.5774
vn -0.5774 -0.5774 -0.5774
vn 0.5774 -0.5774 -0.5774
vn 0.5774 -0.5774 0.5774
vn -0.5774 0.5774 0.5774
vn 0.5774 0.5774 0.5774
vn 0.5774 0.5774 -0.5774
vn -0.5774 0.5774 -0.5774
# 8 vertex normals

vt 1.0000 0.0000 0.0000
vt 1.0000 1.0000 0.0000
vt 0.0000 1.0000 0.0000
vt 0.0000 0.0000 0.0000
# 4 texture coords

o Box068
g Box068
usemtl wire_225087143
s 2
f 89/45/89 90/46/90 91/47/91 92/48/92 
s 4
f 93/48/93 94/45/94 95/46/95 96/47/96 
s 8
f 89/48/89 92/45/92 94/46/94 93/47/93 
s 16
f 92/48/92 91/45/91 95/46/95 94/47/94 
s 32
f 91/48/91 90/45/90 96/46/96 95/47/95 
s 64
f 90/48/90 89/45/89 93/46/93 96/47/96 
# 6 polygons

#
# object Box069
#

v  -83.0703 -4.8886 17.2363
v  -83.0703 -4.8886 16.7931
v  -75.8757 -4.8886 16.7931
v  -75.8757 -4.8886 17.2363
v  -83.0703 -0.4452 17.2363
v  -75.8757 -0.4452 17.2363
v  -75.8757 -0.4452 16.7931
v  -83.0703 -0.4452 16.7931
# 8 vertices

vn -0.5774 -0.5774 0.5774
vn -0.5774 -0.5774 -0.5774
vn 0.5774 -0.5774 -0.5774
vn 0.5774 -0.5774 0.5774
vn -0.5774 0.5774 0.5774
vn 0.5774 0.5774 0.5774
vn 0.5774 0.5774 -0.5774
vn -0.5774 0.5774 -0.5774
# 8 vertex normals

vt 1.0000 0.0000 0.0000
vt 1.0000 1.0000 0.0000
vt 0.0000 1.0000 0.0000
vt 0.0000 0.0000 0.0000
# 4 texture coords

o Box069
g Box069
usemtl wire_225087143
s 2
f 97/49/97 98/50/98 99/51/99 100/52/100 
s 4
f 101/52/101 102/49/102 103/50/103 104/51/104 
s 8
f 97/52/97 100/49/100 102/50/102 101/51/101 
s 16
f 100/52/100 99/49/99 103/50/103 102/51/102 
s 32
f 99/52/99 98/49/98 104/50/104 103/51/103 
s 64
f 98/52/98 97/49/97 101/50/101 104/51/104 
# 6 polygons

