# 3ds Max Wavefront OBJ Exporter v0.97b - (c)2007 guruware
# 创建的文件:09.04.2021 20:33:48

mtllib chuizhi.mtl

#
# object 垂直尾翼
#

v  138.5129 19.0056 -0.0000
v  142.1336 36.0304 -0.0000
v  142.2371 36.0504 3.5000
v  138.5129 18.3736 3.5000
v  152.7696 86.0423 0.0000
v  138.6337 86.1631 0.0000
v  146.0746 86.1631 3.5000
v  149.3218 86.1045 3.5000
v  152.7696 86.0423 3.5000
v  116.1569 56.6551 -0.0000
v  130.3956 57.0924 3.5000
v  100.4548 36.0411 -0.0000
v  66.9879 22.5094 -0.0000
v  66.9879 21.1639 3.5000
v  119.0419 36.0411 3.5000
v  132.4951 36.0465 3.5000
v  139.8294 57.0661 3.5000
v  138.5129 18.3736 -3.5000
v  142.2287 36.0104 -3.5000
v  152.7696 86.0423 -3.5000
v  149.2573 86.1056 -3.5000
v  146.0746 86.1631 -3.5000
v  130.3956 57.0924 -3.5000
v  119.0419 36.0411 -3.5000
v  66.9879 21.1639 -3.5000
v  132.4902 36.0233 -3.5000
v  146.5695 56.8887 -0.0000
v  146.6608 57.0470 3.5000
v  146.6559 57.0238 -3.5000
v  139.8266 57.0526 -3.5000
# 30 vertices

vn 0.6481 -0.7616 -0.0000
vn 0.9781 -0.2080 0.0000
vn 0.7015 -0.1478 0.6972
vn 0.4925 -0.6888 0.5320
vn 0.7799 0.6260 0.0000
vn -0.6180 0.7861 0.0000
vn -0.1001 0.7052 0.7019
vn -0.0180 -0.9998 -0.0000
vn 0.6438 0.5126 0.5681
vn -0.7955 0.6060 -0.0000
vn -0.1214 0.0655 0.9904
vn -0.4459 0.8951 0.0000
vn -0.9981 0.0612 0.0000
vn -0.8245 -0.2842 0.4894
vn -0.0688 0.0617 0.9957
vn 0.0000 -0.0000 1.0000
vn -0.0000 -0.0000 1.0000
vn 0.4925 -0.6888 -0.5320
vn 0.7015 -0.1478 -0.6972
vn 0.6438 0.5126 -0.5681
vn 0.0083 0.7114 -0.7027
vn -0.1001 0.7052 -0.7019
vn -0.1214 0.0655 -0.9904
vn -0.0688 0.0617 -0.9957
vn -0.8245 -0.2842 -0.4894
vn -0.0000 0.0000 -1.0000
vn 0.6975 -0.1470 0.7014
vn 0.6975 -0.1470 -0.7014
# 28 vertex normals

vt 0.8337 0.2093 0.5000
vt 0.8106 0.4485 0.5000
vt 0.8114 0.4493 0.8708
vt 0.8356 0.2011 0.8708
vt 0.7427 1.1510 0.5000
vt 0.6281 1.0826 0.5000
vt 0.6883 1.1194 0.8708
vt 0.7147 1.1347 0.8708
vt 0.7427 1.1510 0.8708
vt 0.5372 0.5880 0.5000
vt 0.6510 0.6641 0.8708
vt 0.4737 0.2425 0.5000
vt 0.2449 -0.0988 0.5000
vt 0.2491 -0.1163 0.8708
vt 0.6239 0.3344 0.8708
vt 0.7326 0.4010 0.8708
vt 0.7273 0.7104 0.8708
vt 0.8356 0.2011 0.1292
vt 0.8114 0.4487 0.1292
vt 0.7427 1.1510 0.1292
vt 0.7142 1.1344 0.1292
vt 0.6883 1.1194 0.1292
vt 0.6510 0.6641 0.1292
vt 0.6239 0.3344 0.1292
vt 0.2491 -0.1163 0.1292
vt 0.7327 0.4007 0.1292
vt 0.7823 0.7415 0.5000
vt 0.7825 0.7440 0.8708
vt 0.7826 0.7437 0.1292
vt 0.7273 0.7103 0.1292
# 30 texture coords

o 垂直尾翼
g 垂直尾翼
usemtl 03___Default
s 1
f 1/1/1 2/2/2 3/3/3 4/4/4 
s 4
f 5/5/5 6/6/6 7/7/7 8/8/8 9/9/9 
s 2
f 6/6/6 10/10/10 11/11/11 7/7/7 
s 4
f 12/12/12 13/13/13 14/14/14 15/15/15 
s 2
f 13/13/13 1/1/1 4/4/4 14/14/14 
s 16
f 15/15/15 16/16/16 17/17/17 11/11/11 
s 1
f 1/1/1 18/18/18 19/19/19 2/2/2 
s 4
f 5/5/5 20/20/20 21/21/21 22/22/22 6/6/6 
s 2
f 6/6/6 22/22/22 23/23/23 10/10/10 
s 4
f 12/12/12 24/24/24 25/25/25 13/13/13 
s 2
f 13/13/13 25/25/25 18/18/18 1/1/1 
s 16
f 24/24/24 26/26/26 19/19/19 18/18/18 25/25/25 
s 1
f 2/2/2 27/27/2 28/28/27 3/3/3 
f 19/19/19 29/29/28 27/27/2 2/2/2 
s 16
f 15/15/15 14/14/14 4/4/4 3/3/3 16/16/16 
f 24/24/24 23/23/23 30/30/26 26/26/26 
f 28/28/27 9/9/9 8/8/8 17/17/17 
f 23/23/23 22/22/22 21/21/21 30/30/26 
s 1
f 27/27/2 5/5/5 9/9/9 28/28/27 
f 29/29/28 20/20/20 5/5/5 27/27/2 
s 16
f 16/16/16 3/3/3 28/28/27 17/17/17 
f 8/8/8 7/7/7 11/11/11 17/17/17 
f 30/30/26 29/29/28 19/19/19 26/26/26 
f 21/21/21 20/20/20 29/29/28 30/30/26 
s 2
f 10/10/10 12/12/12 15/15/15 11/11/11 
f 23/23/23 24/24/24 12/12/12 10/10/10 
# 26 polygons

