# 3ds Max Wavefront OBJ Exporter v0.97b - (c)2007 guruware
# 创建的文件:18.05.2021 15:36:21

mtllib head.mtl

#
# object Cylinder005
#

v  -78.9099 22.1712 -3.9642
v  -78.9099 21.5371 -8.4225
v  -86.7283 19.3949 -7.8613
v  -86.8042 20.4374 -3.9642
v  -78.9099 16.6474 -15.4245
v  -78.9099 12.9078 -18.9417
v  -86.7283 12.1738 -17.7027
v  -86.7283 15.6076 -14.7294
v  -78.9099 9.6987 -21.1465
v  -86.7283 9.5627 -19.5050
v  -94.5467 15.8534 -8.2465
v  -94.5467 17.5580 -4.4793
v  -94.5467 10.0341 -15.4089
v  -94.4707 11.8188 -13.5804
v  -94.5467 8.0075 -16.8822
v  -86.7283 5.7702 -21.4769
v  -94.5829 5.7700 -18.0283
v  -78.9099 22.3571 -0.2788
v  -86.7283 21.0662 -0.2383
v  -94.5467 17.9466 -0.2383
v  -78.9099 19.5169 -12.2639
v  -86.7283 17.5633 -11.4752
v  -94.3789 14.3521 -10.8332
v  -78.9099 5.7700 -22.8933
v  -78.9099 1.0464 -24.0768
v  -86.7283 1.2921 -23.0552
v  -94.5829 1.0464 -19.6145
v  -86.7283 -3.6769 -23.2681
v  -78.9099 -3.6771 -24.3960
v  -78.9099 -7.2529 -23.7955
v  -86.7283 -7.1968 -22.9738
v  -94.5829 -3.6771 -20.8697
v  -94.5829 -7.1970 -20.5426
v  -86.7283 -17.7564 -18.4805
v  -78.9099 -17.7566 -18.7217
v  -78.9099 -19.7063 -16.7088
v  -86.7283 -19.9205 -16.1089
v  -94.5829 -17.8725 -15.7832
v  -94.5829 -19.0824 -14.3900
v  -78.9099 -10.7169 -22.5758
v  -78.9099 -14.2368 -21.0991
v  -86.7283 -14.2366 -20.5325
v  -86.7283 -10.7167 -21.9807
v  -94.5829 -14.2368 -18.3581
v  -94.5829 -10.7169 -19.7530
v  -78.9099 -21.4211 -14.3385
v  -78.9099 -22.9392 -11.1705
v  -86.7283 -22.7942 -10.7012
v  -86.7283 -21.4289 -14.1116
v  -94.5829 -21.4810 -9.0664
v  -94.5829 -20.4082 -11.9956
v  -78.9099 -24.0195 -7.2575
v  -78.9099 -24.6417 -0.2383
v  -86.7283 -24.3010 -0.2790
v  -86.7283 -23.8930 -6.7329
v  -94.5829 -23.2809 -0.2790
v  -94.5829 -22.6843 -5.5036
v  -78.9099 22.3015 3.4877
v  -86.8042 20.7295 3.4877
v  -86.7283 19.9984 7.4789
v  -78.9099 21.3828 7.4789
v  -78.9099 16.6474 15.2596
v  -86.7283 15.2757 14.4337
v  -86.7283 12.0790 17.2162
v  -78.9099 13.4073 18.4651
v  -86.7283 9.2793 19.1940
v  -78.9099 10.1429 21.5324
v  -94.5467 17.5513 3.4673
v  -94.5467 16.3734 7.3224
v  -94.4707 12.2723 13.2832
v  -94.5467 10.0341 15.3291
v  -94.5467 8.0075 16.5424
v  -86.7283 6.0091 20.8312
v  -94.5829 5.7700 17.5517
v  -86.7283 17.7829 11.3698
v  -78.9099 19.5318 11.7075
v  -94.3789 14.4373 10.2992
v  -78.9099 6.0873 23.1607
v  -86.7283 1.0442 22.5658
v  -78.9099 1.0464 23.8256
v  -94.5829 1.0464 19.5776
v  -86.7283 -3.6769 22.8682
v  -86.7283 -7.1968 22.4660
v  -78.9099 -7.1970 23.3107
v  -78.9099 -3.6771 23.7861
v  -94.5829 -3.6771 20.4896
v  -94.5829 -7.1970 20.5917
v  -86.7283 -17.7824 17.2753
v  -86.7283 -19.7967 15.7278
v  -78.9099 -19.7771 16.1368
v  -78.9099 -17.7566 18.2286
v  -94.5829 -17.8814 15.3066
v  -94.5829 -19.4402 13.4398
v  -78.9099 -10.7169 22.2201
v  -86.7283 -10.7167 21.5577
v  -86.7283 -14.2366 19.8707
v  -78.9099 -14.2368 20.5399
v  -94.5829 -10.7169 19.7655
v  -94.5829 -14.2368 17.9534
v  -78.9099 -21.5598 13.7594
v  -86.7283 -21.2652 12.9890
v  -86.7283 -22.4886 9.6924
v  -78.9099 -22.9392 10.2701
v  -94.5829 -20.5644 11.5190
v  -94.5829 -21.7959 8.5899
v  -78.9099 -23.7707 6.7809
v  -86.7283 -23.6497 6.2563
v  -94.5829 -22.5538 5.6607
# 108 vertices

vn -0.2136 0.9725 -0.0929
vn -0.2721 0.9161 -0.2946
vn -0.3230 0.8844 -0.3369
vn -0.2708 0.9410 -0.2031
vn -0.1553 0.7052 -0.6918
vn -0.1794 0.6164 -0.7667
vn -0.2759 0.5892 -0.7594
vn -0.2915 0.7364 -0.6105
vn -0.1887 0.4753 -0.8593
vn -0.2745 0.4974 -0.8229
vn -0.3515 0.8243 -0.4437
vn -0.3218 0.9113 -0.2569
vn -0.3722 0.6102 -0.6994
vn -0.4176 0.6658 -0.6184
vn -0.3633 0.4900 -0.7924
vn -0.2695 0.3816 -0.8841
vn -0.3737 0.3690 -0.8510
vn -0.1630 0.9865 -0.0176
vn -0.2647 0.9636 -0.0368
vn -0.3706 0.9288 0.0071
vn -0.2542 0.7949 -0.5509
vn -0.3184 0.8300 -0.4580
vn -0.3590 0.7422 -0.5659
vn -0.1690 0.3183 -0.9328
vn -0.1234 0.1519 -0.9807
vn -0.2599 0.1839 -0.9480
vn -0.3937 0.2661 -0.8799
vn -0.2174 -0.0198 -0.9759
vn -0.1426 -0.0484 -0.9886
vn -0.1030 -0.2475 -0.9634
vn -0.1976 -0.1736 -0.9648
vn -0.2910 0.0825 -0.9531
vn -0.2923 -0.1510 -0.9443
vn -0.1383 -0.6155 -0.7759
vn -0.0237 -0.6413 -0.7669
vn -0.0286 -0.7637 -0.6450
vn -0.1226 -0.7632 -0.6344
vn -0.2336 -0.6656 -0.7088
vn -0.2073 -0.8060 -0.5545
vn -0.0709 -0.3583 -0.9309
vn -0.0637 -0.4728 -0.8789
vn -0.1531 -0.4363 -0.8867
vn -0.1656 -0.3210 -0.9325
vn -0.2352 -0.4717 -0.8498
vn -0.2613 -0.2881 -0.9213
vn -0.0140 -0.8586 -0.5124
vn -0.0385 -0.9349 -0.3529
vn -0.1285 -0.9392 -0.3185
vn -0.1266 -0.8612 -0.4923
vn -0.2210 -0.9203 -0.3227
vn -0.2226 -0.8905 -0.3968
vn -0.0281 -0.9830 -0.1814
vn -0.0436 -0.9989 0.0178
vn -0.0861 -0.9961 0.0179
vn -0.1012 -0.9808 -0.1669
vn -0.1288 -0.9917 0.0041
vn -0.1803 -0.9616 -0.2067
vn -0.1940 0.9741 0.1164
vn -0.2870 0.9492 0.1289
vn -0.2826 0.9012 0.3288
vn -0.1660 0.9372 0.3067
vn -0.1970 0.7272 0.6575
vn -0.2765 0.6915 0.6674
vn -0.2781 0.5934 0.7554
vn -0.2269 0.6761 0.7011
vn -0.3246 0.4865 0.8112
vn -0.2979 0.5077 0.8084
vn -0.3733 0.9081 0.1898
vn -0.3906 0.8247 0.4090
vn -0.3619 0.6947 0.6216
vn -0.3301 0.5632 0.7575
vn -0.3519 0.4361 0.8283
vn -0.3182 0.3691 0.8732
vn -0.3665 0.3780 0.8502
vn -0.3036 0.7857 0.5390
vn -0.2093 0.8383 0.5035
vn -0.4019 0.7517 0.5229
vn -0.2795 0.2390 0.9299
vn -0.2520 0.1910 0.9487
vn -0.1588 0.0602 0.9855
vn -0.3410 0.2826 0.8966
vn -0.2030 -0.0243 0.9789
vn -0.1669 -0.1791 0.9696
vn -0.1049 -0.2133 0.9713
vn -0.1163 -0.0704 0.9907
vn -0.2882 0.1066 0.9516
vn -0.2310 -0.0998 0.9678
vn -0.1425 -0.5936 0.7920
vn -0.1259 -0.7506 0.6486
vn -0.0321 -0.7597 0.6495
vn -0.0918 -0.6310 0.7703
vn -0.1695 -0.6830 0.7105
vn -0.1983 -0.8080 0.5548
vn -0.0787 -0.3619 0.9289
vn -0.1443 -0.3378 0.9301
vn -0.1392 -0.5068 0.8508
vn -0.0744 -0.4880 0.8696
vn -0.2089 -0.3437 0.9156
vn -0.2028 -0.5184 0.8307
vn -0.0811 -0.8671 0.4914
vn -0.1156 -0.9050 0.4095
vn -0.1039 -0.9374 0.3325
vn -0.0771 -0.9502 0.3019
vn -0.1607 -0.8851 0.4368
vn -0.1269 -0.9413 0.3128
vn -0.0273 -0.9833 0.1799
vn -0.0897 -0.9737 0.2094
vn -0.1494 -0.9718 0.1823
# 108 vertex normals

vt 0.0278 0.6000 1.0000
vt 0.0556 0.6000 1.0000
vt 0.0556 0.8000 1.0000
vt 0.0278 0.8000 1.0000
vt 0.0833 0.6000 1.0000
vt 0.1389 0.6000 1.0000
vt 0.1389 0.8000 1.0000
vt 0.0833 0.8000 1.0000
vt 0.1667 0.6000 1.0000
vt 0.1667 0.8000 1.0000
vt 0.0572 1.0000 1.0000
vt 0.0278 1.0000 1.0000
vt 0.1389 1.0000 1.0000
vt 0.0833 1.0000 1.0000
vt 0.1667 1.0000 1.0000
vt 0.1944 0.8000 1.0000
vt 0.1944 1.0000 1.0000
vt 0.0000 0.6000 1.0000
vt 0.0000 0.8000 1.0000
vt 0.0000 1.0000 1.0000
vt 0.0694 0.6000 1.0000
vt 0.0694 0.8000 1.0000
vt 0.0703 1.0000 1.0000
vt 0.1944 0.6000 1.0000
# 24 texture coords

o Cylinder005
g Cylinder005
usemtl wire_184155229
s 8
f 1/1/1 2/2/2 3/3/3 4/4/4 
f 5/5/5 6/6/6 7/7/7 8/8/8 
f 6/6/6 9/9/9 10/10/10 7/7/7 
f 4/4/4 3/3/3 11/11/11 12/12/12 
f 8/8/8 7/7/7 13/13/13 14/14/14 
f 7/7/7 10/10/10 15/15/15 13/13/13 
f 16/16/16 17/17/17 15/15/15 10/10/10 
f 18/18/18 1/1/1 4/4/4 19/19/19 
f 19/19/19 4/4/4 12/12/12 20/20/20 
f 2/2/2 21/21/21 22/22/22 3/3/3 
f 3/3/3 22/22/22 23/23/23 11/11/11 
f 21/21/21 5/5/5 8/8/8 22/22/22 
f 22/22/22 8/8/8 14/14/14 23/23/23 
f 9/9/9 24/24/24 16/16/16 10/10/10 
s off
f 16/16/16 24/24/24 25/24/25 26/16/26 
f 17/17/17 16/16/16 26/16/26 27/17/27 
f 28/16/28 29/24/29 30/24/30 31/16/31 
f 32/17/32 28/16/28 31/16/31 33/17/33 
f 34/16/34 35/24/35 36/24/36 37/16/37 
f 38/17/38 34/16/34 37/16/37 39/17/39 
f 25/24/25 29/24/29 28/16/28 26/16/26 
f 26/16/26 28/16/28 32/17/32 27/17/27 
f 40/24/40 41/24/41 42/16/42 43/16/43 
f 43/16/43 42/16/42 44/17/44 45/17/45 
f 30/24/30 40/24/40 43/16/43 31/16/31 
f 31/16/31 43/16/43 45/17/45 33/17/33 
f 41/24/41 35/24/35 34/16/34 42/16/42 
f 42/16/42 34/16/34 38/17/38 44/17/44 
f 46/24/46 47/24/47 48/16/48 49/16/49 
f 49/16/49 48/16/48 50/17/50 51/17/51 
f 52/24/52 53/24/53 54/16/54 55/16/55 
f 55/16/55 54/16/54 56/17/56 57/17/57 
f 36/24/36 46/24/46 49/16/49 37/16/37 
f 37/16/37 49/16/49 51/17/51 39/17/39 
f 47/24/47 52/24/52 55/16/55 48/16/48 
f 48/16/48 55/16/55 57/17/57 50/17/50 
s 8
f 58/1/58 59/4/59 60/3/60 61/2/61 
f 62/5/62 63/8/63 64/7/64 65/6/65 
f 65/6/65 64/7/64 66/10/66 67/9/67 
f 59/4/59 68/12/68 69/11/69 60/3/60 
f 63/8/63 70/14/70 71/13/71 64/7/64 
f 64/7/64 71/13/71 72/15/72 66/10/66 
f 73/16/73 66/10/66 72/15/72 74/17/74 
f 18/18/18 19/19/19 59/4/59 58/1/58 
f 19/19/19 20/20/20 68/12/68 59/4/59 
f 61/2/61 60/3/60 75/22/75 76/21/76 
f 60/3/60 69/11/69 77/23/77 75/22/75 
f 76/21/76 75/22/75 63/8/63 62/5/62 
f 75/22/75 77/23/77 70/14/70 63/8/63 
f 67/9/67 66/10/66 73/16/73 78/24/78 
s off
f 73/16/73 79/16/79 80/24/80 78/24/78 
f 74/17/74 81/17/81 79/16/79 73/16/73 
f 82/16/82 83/16/83 84/24/84 85/24/85 
f 86/17/86 87/17/87 83/16/83 82/16/82 
f 88/16/88 89/16/89 90/24/90 91/24/91 
f 92/17/92 93/17/93 89/16/89 88/16/88 
f 80/24/80 79/16/79 82/16/82 85/24/85 
f 79/16/79 81/17/81 86/17/86 82/16/82 
f 94/24/94 95/16/95 96/16/96 97/24/97 
f 95/16/95 98/17/98 99/17/99 96/16/96 
f 84/24/84 83/16/83 95/16/95 94/24/94 
f 83/16/83 87/17/87 98/17/98 95/16/95 
f 97/24/97 96/16/96 88/16/88 91/24/91 
f 96/16/96 99/17/99 92/17/92 88/16/88 
f 100/24/100 101/16/101 102/16/102 103/24/103 
f 101/16/101 104/17/104 105/17/105 102/16/102 
f 106/24/106 107/16/107 54/16/54 53/24/53 
f 107/16/107 108/17/108 56/17/56 54/16/54 
f 90/24/90 89/16/89 101/16/101 100/24/100 
f 89/16/89 93/17/93 104/17/104 101/16/101 
f 103/24/103 102/16/102 107/16/107 106/24/106 
f 102/16/102 105/17/105 108/17/108 107/16/107 
# 72 polygons

