# 3ds Max Wavefront OBJ Exporter v0.97b - (c)2007 guruware
# 创建的文件:29.04.2021 10:47:27

mtllib power.mtl

#
# object 供电
#

v  -97.5020 -5.2648 9.0342
v  -96.0386 -5.2648 15.4646
v  -91.2647 -5.2648 19.2044
v  -91.2647 -5.2648 9.0342
v  -85.0275 -5.2648 19.2044
v  -85.0275 -5.2648 9.0342
v  -78.7902 -5.2648 19.2044
v  -78.7902 -5.2648 9.0342
v  -72.5529 -5.2648 19.2044
v  -72.5529 -5.2648 9.0342
v  -97.5020 -5.2648 -1.1361
v  -91.2647 -5.2648 -1.1361
v  -85.0275 -5.2648 -1.1361
v  -78.7902 -5.2648 -1.1361
v  -72.5529 -5.2648 -1.1361
v  -97.5020 -5.2648 -11.3063
v  -91.2647 -5.2648 -11.3063
v  -85.0275 -5.2648 -11.3063
v  -78.7902 -5.2648 -11.3063
v  -72.5529 -5.2648 -11.3063
v  -96.0386 -5.2648 -16.7611
v  -91.2647 -5.2648 -20.7898
v  -85.0275 -5.2648 -21.4766
v  -78.7902 -5.2648 -21.4766
v  -72.5529 -5.2648 -21.4766
v  -97.5020 -5.6179 9.0342
v  -96.0386 -5.6179 15.4646
v  -91.2647 -5.6179 19.2044
v  -85.0275 -5.6179 19.2044
v  -78.7902 -5.6179 19.2044
v  -72.5529 -5.6179 19.2044
v  -72.5529 -5.6179 9.0342
v  -72.5529 -5.6179 -1.1361
v  -72.5529 -5.6179 -11.3063
v  -72.5529 -5.6179 -21.4766
v  -78.7902 -5.6179 -21.4766
v  -85.0275 -5.6179 -21.4766
v  -91.2647 -5.6179 -20.7898
v  -96.0386 -5.6179 -16.7611
v  -97.5020 -5.6179 -11.3063
v  -97.5020 -5.6179 -1.1361
# 41 vertices

vn -0.7297 0.6747 0.1113
vn -0.6030 0.6333 0.4851
vn -0.1941 0.6537 0.7315
vn 0.0000 1.0000 0.0000
vn 0.0000 0.7071 0.7071
vn 0.5774 0.5773 0.5774
vn 0.7071 0.7071 0.0000
vn -0.7071 0.7071 -0.0000
vn 0.0000 1.0000 -0.0000
vn 0.7071 0.7071 -0.0000
vn -0.7311 0.6697 -0.1303
vn -0.5943 0.6403 -0.4866
vn -0.2337 0.6581 -0.7157
vn -0.0286 0.6982 -0.7153
vn 0.0000 0.7071 -0.7071
vn 0.5774 0.5773 -0.5774
vn -0.7297 -0.6747 0.1113
vn -0.6030 -0.6333 0.4851
vn -0.1941 -0.6537 0.7315
vn 0.0000 -0.7071 0.7071
vn 0.5773 -0.5774 0.5773
vn 0.7071 -0.7071 -0.0000
vn 0.5773 -0.5774 -0.5773
vn 0.0000 -0.7071 -0.7071
vn -0.0286 -0.6982 -0.7153
vn -0.2337 -0.6581 -0.7157
vn -0.5942 -0.6404 -0.4866
vn -0.7311 -0.6697 -0.1303
vn -0.7071 -0.7071 -0.0000
# 29 vertex normals

vt 0.0000 0.2500 0.0000
vt 0.0000 0.0000 0.0000
vt 0.2500 0.0000 0.0000
vt 0.2500 0.2500 0.0000
vt 0.5000 0.0000 0.0000
vt 0.5000 0.2500 0.0000
vt 0.7500 0.0000 0.0000
vt 0.7500 0.2500 0.0000
vt 1.0000 0.0000 0.0000
vt 1.0000 0.2500 0.0000
vt 0.0000 0.5000 0.0000
vt 0.2500 0.5000 0.0000
vt 0.5000 0.5000 0.0000
vt 0.7500 0.5000 0.0000
vt 1.0000 0.5000 0.0000
vt 0.0000 0.7500 0.0000
vt 0.2500 0.7500 0.0000
vt 0.5000 0.7500 0.0000
vt 0.7500 0.7500 0.0000
vt 1.0000 0.7500 0.0000
vt 0.0000 1.0000 0.0000
vt 0.2500 1.0000 0.0000
vt 0.5000 1.0000 0.0000
vt 0.7500 1.0000 0.0000
vt 1.0000 1.0000 0.0000
# 25 texture coords

o 供电
g 供电
usemtl wire_006135113
s 1
f 1/1/1 2/2/2 3/3/3 4/4/4 
f 4/4/4 3/3/3 5/5/5 6/6/4 
f 6/6/4 5/5/5 7/7/5 8/8/4 
f 8/8/4 7/7/5 9/9/6 10/10/7 
f 11/11/8 1/1/1 4/4/4 12/12/9 
f 12/12/9 4/4/4 6/6/4 13/13/9 
f 13/13/9 6/6/4 8/8/4 14/14/9 
f 14/14/9 8/8/4 10/10/7 15/15/10 
f 16/16/11 11/11/8 12/12/9 17/17/9 
f 17/17/9 12/12/9 13/13/9 18/18/4 
f 18/18/4 13/13/9 14/14/9 19/19/4 
f 19/19/4 14/14/9 15/15/10 20/20/7 
f 21/21/12 16/16/11 17/17/9 22/22/13 
f 22/22/13 17/17/9 18/18/4 23/23/14 
f 23/23/14 18/18/4 19/19/4 24/24/15 
f 24/24/15 19/19/4 20/20/7 25/25/16 
s off
f 26/1/17 27/2/18 2/2/2 1/1/1 
f 27/2/18 28/3/19 3/3/3 2/2/2 
f 28/3/19 29/5/20 5/5/5 3/3/3 
f 29/5/20 30/7/20 7/7/5 5/5/5 
f 30/7/20 31/9/21 9/9/6 7/7/5 
f 31/9/21 32/10/22 10/10/7 9/9/6 
f 32/10/22 33/15/22 15/15/10 10/10/7 
f 33/15/22 34/20/22 20/20/7 15/15/10 
f 34/20/22 35/25/23 25/25/16 20/20/7 
f 35/25/23 36/24/24 24/24/15 25/25/16 
f 36/24/24 37/23/25 23/23/14 24/24/15 
f 37/23/25 38/22/26 22/22/13 23/23/14 
f 38/22/26 39/21/27 21/21/12 22/22/13 
f 39/21/27 40/16/28 16/16/11 21/21/12 
f 40/16/28 41/11/29 11/11/8 16/16/11 
f 41/11/29 26/1/17 1/1/1 11/11/8 
f 26/1/17 41/11/29 40/16/28 39/21/27 38/22/26 37/23/25 36/24/24 35/25/23 34/20/22 33/15/22 32/10/22 31/9/21 30/7/20 29/5/20 28/3/19 27/2/18 
# 33 polygons

