# 3ds Max Wavefront OBJ Exporter v0.97b - (c)2007 guruware
# 创建的文件:08.04.2021 16:18:15

mtllib window.mtl

#
# object 窗
#

v  -105.9262 8.9956 0.0012
v  -111.8895 3.2649 -0.0001
v  -109.8181 3.3097 4.0127
v  -104.5389 8.7111 3.8524
v  -104.8153 8.7120 -3.9224
v  -109.8257 3.4381 -4.0648
v  -110.0917 3.9422 -0.0003
v  -101.2772 3.7478 13.8196
v  -101.2479 3.7751 13.8692
v  -104.4222 3.4898 10.9353
v  -107.4612 3.2673 8.0255
v  -97.8787 8.6224 13.0283
v  -98.0075 8.5650 13.0375
v  -102.2583 8.8332 7.7034
v  -102.5729 8.5747 7.7037
v  -100.3441 8.5000 10.3706
v  -104.1342 9.0388 3.8466
v  -105.6698 9.2123 -0.0000
v  -104.4758 9.0178 -3.8944
v  -102.2538 8.8327 -7.8379
v  -97.8802 8.6217 -13.0239
v  -98.0093 8.5665 -13.0323
v  -100.2810 8.5314 -10.4391
v  -102.5002 8.5789 -7.8460
v  -101.2786 3.7485 -13.8142
v  -101.2548 3.7639 -13.8053
v  -107.4658 3.4911 -8.1296
v  -104.4311 3.5479 -10.9787
# 28 vertices

vn -0.6717 0.7406 0.0212
vn -0.8908 -0.4544 -0.0013
vn -0.8822 -0.2457 0.4018
vn -0.6461 0.7150 0.2670
vn -0.6639 0.6967 -0.2720
vn -0.8923 -0.1993 -0.4051
vn 0.3525 -0.9358 0.0000
vn -0.7217 -0.4211 0.5494
vn 0.1485 -0.3551 0.9230
vn -0.5110 -0.6989 0.5004
vn -0.7303 -0.4995 0.4660
vn -0.2865 0.7558 0.5888
vn -0.3341 0.6096 0.7189
vn -0.5908 0.7195 0.3650
vn -0.6318 0.6819 0.3684
vn -0.6716 0.5641 0.4803
vn -0.6053 0.7530 0.2580
vn -0.6452 0.7636 0.0251
vn -0.6311 0.7296 -0.2634
vn -0.6452 0.6423 -0.4137
vn -0.2755 0.7534 -0.5970
vn -0.3297 0.6061 -0.7238
vn -0.6862 0.5316 -0.4966
vn -0.6456 0.6499 -0.4011
vn -0.5348 0.8447 -0.0230
vn -0.7494 0.6271 0.2124
vn -0.7772 -0.3926 -0.4918
vn -0.4299 -0.8006 -0.4173
# 28 vertex normals

o 窗
g 窗
usemtl wire_000000000
s 1
f 1//1 2//2 3//3 4//4 
f 1//1 5//5 6//6 2//2 
s off
f 7//7 8//8 9//9 10//10 11//11 3//3 2//2 
f 8//8 12//12 13//13 9//9 
f 12//12 14//14 15//15 16//16 13//13 
f 14//14 17//17 4//4 15//15 
f 18//18 19//19 5//5 1//1 
f 20//20 21//21 22//22 23//23 24//24 
f 21//21 25//25 26//26 22//22 
f 25//25 7//7 2//2 6//6 27//27 28//28 26//26 
s 1
f 24//24 23//23 28//28 27//27 
f 11//11 10//10 16//16 15//15 
f 3//3 11//11 15//15 4//4 
f 5//5 24//24 27//27 6//6 
f 10//10 9//9 13//13 16//16 
f 23//23 22//22 26//26 28//28 
s off
f 19//19 20//20 24//24 5//5 
f 17//17 18//18 1//1 4//4 
# 18 polygons

